<svg width="512" height="512" xmlns="http://www.w3.org/2000/svg" xmlns:xlink="http://www.w3.org/1999/xlink"><defs><linearGradient x1="21.58%" y1="43.836%" x2="21.58%" y2="60.537%" id="a"><stop stop-color="#62707C" offset="0%"/><stop stop-color="#262E36" offset="100%"/></linearGradient><linearGradient x1="52.417%" y1="51.353%" x2="44.194%" y2="75.293%" id="c"><stop stop-color="#F5F5F5" offset="0%"/><stop stop-color="#DADDE0" offset="49.187%"/><stop stop-color="#A8B2BC" offset="86.999%"/><stop stop-color="#89939D" offset="100%"/></linearGradient><path d="M25.974 224C10.494 214.313 0 195.553 0 174c0-20.91 9.876-39.189 24.6-49.108L208 .2v347.6L25.974 224z" id="b"/><linearGradient x1="44.563%" y1="25.748%" x2="48.658%" y2="35.763%" id="d"><stop stop-color="#CDD5DB" offset="0%"/><stop stop-color="#D1D7DB" offset="27.228%"/><stop stop-color="#DADDE0" stop-opacity="0" offset="100%"/></linearGradient><linearGradient x1="72.024%" y1="49.319%" x2="20.617%" y2="56.015%" id="f"><stop stop-color="#FFF" offset="0%"/><stop stop-color="#FFF" stop-opacity=".5" offset="100%"/></linearGradient><linearGradient x1="72.024%" y1="48.249%" x2="20.617%" y2="65.468%" id="g"><stop stop-color="#FFF" offset="0%"/><stop stop-color="#FFF" stop-opacity=".5" offset="100%"/></linearGradient><linearGradient x1="50%" y1="0%" x2="50%" y2="100%" id="i"><stop stop-color="#CED5DB" offset="0%"/><stop stop-color="#9FAAB5" offset="100%"/></linearGradient><path d="M12.5 44c5.247 0 9.5-9.85 9.5-22S17.747 0 12.5 0H.262v44H12.5z" id="h"/><filter x="-2.3%" y="-1.1%" width="104.6%" height="102.3%" filterUnits="objectBoundingBox" id="j"><feOffset dx="-1" in="SourceAlpha" result="shadowOffsetInner1"/><feComposite in="shadowOffsetInner1" in2="SourceAlpha" operator="arithmetic" k2="-1" k3="1" result="shadowInnerInner1"/><feColorMatrix values="0 0 0 0 0 0 0 0 0 0 0 0 0 0 0 0 0 0 0.1 0" in="shadowInnerInner1"/></filter><linearGradient x1="50%" y1="0%" x2="50%" y2="100%" id="m"><stop stop-color="#2C3246" offset="0%"/><stop stop-color="#232838" offset="31.53%"/><stop stop-color="#0E1119" offset="70.992%"/><stop stop-color="#23283A" offset="100%"/></linearGradient><path d="M118.888 1.035c-14.923 7.652-29.079 18.303-41.774 26.89C31.032 59.095 0 117.593 0 184.618 0 250.68 30.148 308.46 75.141 339.953c15.606 10.923 32.998 23.31 51.537 30.116 8.718 3.2 3.738-374.946-7.79-369.034z" id="l"/><filter x="-5.3%" y="-1.9%" width="110.7%" height="103.8%" filterUnits="objectBoundingBox" id="n"><feGaussianBlur stdDeviation="4.5" in="SourceAlpha" result="shadowBlurInner1"/><feOffset dx="5" in="shadowBlurInner1" result="shadowOffsetInner1"/><feComposite in="shadowOffsetInner1" in2="SourceAlpha" operator="arithmetic" k2="-1" k3="1" result="shadowInnerInner1"/><feColorMatrix values="0 0 0 0 1 0 0 0 0 1 0 0 0 0 1 0 0 0 0.2 0" in="shadowInnerInner1"/></filter><linearGradient x1="54.656%" y1="21.8%" x2="61.919%" y2="92.696%" id="o"><stop stop-color="#FFF" stop-opacity="0" offset="0%"/><stop stop-color="#FFF" stop-opacity="0" offset="16.526%"/><stop stop-color="#FFF" offset="43.818%"/><stop stop-color="#FFF" stop-opacity="0" offset="100%"/></linearGradient><linearGradient x1="50%" y1="100%" x2="50%" y2="0%" id="q"><stop stop-color="#22283A" offset="0%"/><stop stop-color="#4A4F61" offset="100%"/></linearGradient><ellipse id="r" cx="187" cy="200" rx="170" ry="200"/><filter x="-1.2%" y="-1%" width="102.4%" height="102%" filterUnits="objectBoundingBox" id="s"><feGaussianBlur stdDeviation="3" in="SourceAlpha" result="shadowBlurInner1"/><feOffset dx="-2" in="shadowBlurInner1" result="shadowOffsetInner1"/><feComposite in="shadowOffsetInner1" in2="SourceAlpha" operator="arithmetic" k2="-1" k3="1" result="shadowInnerInner1"/><feColorMatrix values="0 0 0 0 1 0 0 0 0 1 0 0 0 0 1 0 0 0 0.5 0" in="shadowInnerInner1"/></filter><linearGradient x1="53.172%" y1="100%" x2="51.993%" y2="0%" id="v"><stop stop-color="#596178" offset="0%"/><stop stop-color="#343B4E" offset="35.737%"/><stop stop-color="#2F3547" offset="69.813%"/><stop stop-color="#525B75" offset="100%"/></linearGradient><ellipse id="t" cx="187" cy="200" rx="160" ry="191"/><filter x="-.5%" y="-.1%" width="100.6%" height="100.5%" filterUnits="objectBoundingBox" id="u"><feOffset dx="-1" dy="1" in="SourceAlpha" result="shadowOffsetOuter1"/><feColorMatrix values="0 0 0 0 1 0 0 0 0 1 0 0 0 0 1 0 0 0 0.2 0" in="shadowOffsetOuter1"/></filter><filter x="-11.9%" y="-10.5%" width="123.8%" height="121%" filterUnits="objectBoundingBox" id="w"><feOffset dy="1" in="SourceAlpha" result="shadowOffsetOuter1"/><feGaussianBlur stdDeviation="10" in="shadowOffsetOuter1" result="shadowBlurOuter1"/><feColorMatrix values="0 0 0 0 0 0 0 0 0 0 0 0 0 0 0 0 0 0 0.5 0" in="shadowBlurOuter1" result="shadowMatrixOuter1"/><feMerge><feMergeNode in="shadowMatrixOuter1"/><feMergeNode in="SourceGraphic"/></feMerge></filter><linearGradient x1="50%" y1="0%" x2="50%" y2="100%" id="y"><stop stop-color="#30373E" offset="0%"/><stop stop-color="#26292E" offset="100%"/></linearGradient><ellipse id="z" cx="52.049" cy="98.961" rx="46.266" ry="52.281"/><radialGradient cx="53.637%" cy="38.28%" fx="53.637%" fy="38.28%" r="54.657%" gradientTransform="matrix(0 .88494 -1 0 .92 -.092)" id="A"><stop stop-color="#DF07FF" offset="0%"/><stop stop-color="#C218C6" offset="32.919%"/><stop offset="100%"/></radialGradient><radialGradient cx="23.375%" cy="71.862%" fx="23.375%" fy="71.862%" r="71.686%" gradientTransform="scale(1 .88494) rotate(-33.858 .387 .765)" id="D"><stop stop-color="#2A9C90" offset="0%"/><stop stop-color="#6B1A71" offset="100%"/></radialGradient><ellipse id="C" cx="153.801" cy="174.32" rx="153.668" ry="173.648"/><radialGradient cx="70.058%" cy="50%" fx="70.058%" fy="50%" r="53.099%" gradientTransform="matrix(-.5814 -.72 .81362 -.5145 .701 1.262)" id="E"><stop stop-color="#2A679C" offset="0%"/><stop stop-color="#26292E" stop-opacity="0" offset="100%"/></radialGradient><linearGradient x1="72.987%" y1="14.627%" x2="27.255%" y2="86.531%" id="G"><stop stop-color="#B21FC6" offset="0%"/><stop stop-color="#7689A9" stop-opacity="0" offset="100%"/></linearGradient><radialGradient cx="57.791%" cy="63.463%" fx="57.791%" fy="63.463%" r="97.514%" gradientTransform="matrix(-1 0 0 -.825 1.156 1.158)" id="H"><stop stop-opacity="0" offset="0%"/><stop stop-opacity=".116" offset="29.706%"/><stop offset="100%"/></radialGradient></defs><g fill="none" fill-rule="evenodd"><path d="M4.625 208.162C1.894 206.731 0 203.614 0 200c0-3.348 1.625-6.269 4.036-7.82v-.01l.085-.043a7.539 7.539 0 0 1 1.331-.661l43.15-21.422v67.536L4.626 208.162z" fill="url(#a)" transform="rotate(-45 334.26 239.257)"/><g transform="rotate(-45 359.146 210.565)"><mask id="e" fill="#fff"><use xlink:href="#b"/></mask><use fill="url(#c)" xlink:href="#b"/><path d="M25.974 224C10.494 214.313 0 195.553 0 174c0-20.91 9.876-39.189 24.6-49.108L208 .2v347.6L25.974 224z" fill="url(#d)" mask="url(#e)"/><path fill="#FFF" opacity=".3" mask="url(#e)" d="M-48 173.5L182.502 38v153z"/><path fill="url(#f)" mask="url(#e)" d="M-48 173.5L182.502 78v49.645z"/><path fill="url(#g)" opacity=".3" mask="url(#e)" d="M-48 173.5L182.502 313v13.645z"/><path d="M98.406 272.723C70.97 251.064 53 214.925 53 174s17.97-77.064 45.406-98.723C72.1 97.455 55 133.413 55 174c0 40.587 17.1 76.545 43.406 98.723z" fill="#000" opacity=".2" mask="url(#e)"/><path d="M97.406 272.723C69.97 251.064 52 214.925 52 174s17.97-77.064 45.406-98.723C71.1 97.455 54 133.413 54 174c0 40.587 17.1 76.545 43.406 98.723z" fill="#FFF" opacity=".6" mask="url(#e)"/><path d="M89.406 267.723C61.97 247.161 44 212.852 44 174s17.97-73.161 45.406-93.723C63.1 101.332 46 135.469 46 174s17.1 72.668 43.406 93.723z" fill="#000" opacity=".2" mask="url(#e)"/><path d="M88.406 267.723C60.97 247.161 43 212.852 43 174s17.97-73.161 45.406-93.723C62.1 101.332 45 135.469 45 174s17.1 72.668 43.406 93.723z" fill="#FFF" opacity=".6" mask="url(#e)"/></g><g transform="rotate(-45 522.919 90.402)"><mask id="k" fill="#fff"><use xlink:href="#h"/></mask><use fill="url(#i)" xlink:href="#h"/><use fill="#000" filter="url(#j)" xlink:href="#h"/><path fill-opacity=".1" fill="#000" fill-rule="nonzero" mask="url(#k)" d="M17 0v1H2V0zM20 2v1H5V2zM20 5v1H5V5zM22 9v1H7V9zM22 14v1H7v-1zM22 19v1H7v-1zM22 24v1H7v-1zM22 29v1H7v-1zM22 34v1H7v-1zM19 38v1H4v-1zM18 41v1H3v-1zM16 43v1H1v-1z"/></g><g transform="rotate(-45 527.419 101.266)"><ellipse fill="#FFF" cx="10.5" cy="22" rx="9.5" ry="22"/><ellipse fill="#BAC2CC" cx="9.5" cy="22" rx="9.5" ry="22"/><ellipse fill="#AAB3BE" cx="12.5" cy="21.421" rx="4.5" ry="10.421"/></g><g transform="rotate(-45 275.26 96.819)"><g transform="translate(0 16)"><mask id="p" fill="#fff"><use xlink:href="#l"/></mask><use fill="url(#m)" xlink:href="#l"/><use fill="#000" filter="url(#n)" xlink:href="#l"/><path fill="url(#o)" opacity=".2" mask="url(#p)" d="M.824 97.032l77.977-43.833-40.985 139.503-50.266-2.424z"/></g><use fill="url(#q)" xlink:href="#r"/><use fill="#000" filter="url(#s)" xlink:href="#r"/><mask id="x" fill="#fff"><use xlink:href="#t"/></mask><use fill="#000" filter="url(#u)" xlink:href="#t"/><use fill="url(#v)" xlink:href="#t"/><g filter="url(#w)" mask="url(#x)"><g transform="translate(-10 7)"><ellipse fill="url(#y)" cx="170.5" cy="193" rx="170.191" ry="192.32"/><g transform="translate(52.357 94.04)"><ellipse stroke-opacity=".1" stroke="#FFF" fill-opacity=".5" fill="#000" cx="101.619" cy="98.961" rx="87.574" ry="98.961"/><path d="M53.701 179.25c39.24 0 71.051-35.947 71.051-80.29 0-44.341-31.81-80.288-71.05-80.288-15.802 0-30.399 5.829-42.199 15.688C-6 48.984-3.147 154.472 17.986 168.384c10.494 6.909 22.695 10.866 35.715 10.866z" stroke-opacity=".1" stroke="#FFF" fill-opacity=".2" fill="#FFF"/><mask id="B" fill="#fff"><use xlink:href="#z"/></mask><use stroke-opacity=".1" stroke="#FFF" fill="#000" xlink:href="#z"/><ellipse fill="url(#A)" mask="url(#B)" cx="19.002" cy="98.961" rx="29.742" ry="33.609"/><path d="M19.002 133.07c16.717 0 30.242-15.284 30.242-34.11 0-18.824-13.525-34.108-30.242-34.108S-11.24 80.136-11.24 98.96c0 18.825 13.525 34.11 30.242 34.11zm0-1c-16.136 0-29.242-14.81-29.242-33.11 0-18.298 13.106-33.108 29.242-33.108 16.135 0 29.242 14.81 29.242 33.109 0 18.298-13.107 33.11-29.242 33.11z" fill-opacity=".4" fill="#FF00F3" fill-rule="nonzero" mask="url(#B)"/></g><path d="M153.977 319.969c-62.055 0-112.36-56.846-112.36-126.969 0-70.123 50.305-126.969 112.36-126.969 62.054 0 112.359 56.846 112.359 126.969 0 70.123-50.305 126.969-112.36 126.969zm0-28.008c48.365 0 87.574-44.306 87.574-98.961s-39.209-98.96-87.574-98.96c-48.366 0-87.575 44.305-87.575 98.96 0 54.655 39.209 98.96 87.575 98.96z" stroke-opacity=".1" stroke="#FFF" stroke-width="2" fill="#252020"/><g transform="translate(47.4 72.566)" stroke-opacity=".5" stroke="#000" stroke-width="2"><ellipse cx="106.576" cy="120.434" rx="106.576" ry="120.434"/><ellipse cx="106.576" cy="120.434" rx="103.271" ry="116.699"/><ellipse cx="106.576" cy="120.434" rx="99.967" ry="112.965"/><ellipse cx="106.576" cy="120.434" rx="96.662" ry="109.23"/><ellipse cx="106.576" cy="120.434" rx="93.357" ry="105.496"/></g><g transform="translate(23.309 18.68)"><mask id="F" fill="#fff"><use xlink:href="#C"/></mask><use fill="url(#D)" opacity=".5" xlink:href="#C"/><ellipse fill="url(#E)" opacity=".5" mask="url(#F)" cx="213.285" cy="230.336" rx="170.191" ry="192.32"/><path d="M76.11 24.468C98.904 9.344 125.456.672 153.8.672c84.87 0 153.669 77.745 153.669 173.648 0 23.27-4.05 45.471-11.398 65.752-34.643-14.311-75.769-41.29-115.933-78.043C129.88 116.04 92.558 65.205 76.109 24.468z" fill="url(#G)" mask="url(#F)"/><g opacity=".603" mask="url(#F)"><g transform="translate(5.09 -6.27)"><g transform="translate(0 15.344)"><path stroke="#FFF" opacity=".3" d="M141.94 23.557l-41.973 23.53L89.94 59.26l-19.012 41.814-5.692 55.046-19.737 7.566H15.697L2.48 145.542l14.044-23.365"/><path stroke="#FFF" opacity=".3" d="M136.18 2.9L99.968 47.29l41.861 1.658"/><ellipse fill="#FFF" cx="99.967" cy="46.68" rx="4.957" ry="5.602"/><ellipse fill="#FFF" cx="71.051" cy="100.828" rx="3.305" ry="3.734"/><ellipse fill="#FFF" cx="15.697" cy="163.379" rx="3.305" ry="3.734"/><ellipse fill="#FFF" cx="2.479" cy="145.641" rx="2.479" ry="2.801"/><ellipse fill="#FFF" cx="16.523" cy="122.301" rx="2.479" ry="2.801"/><ellipse fill="#FFF" cx="45.439" cy="163.379" rx="2.479" ry="2.801"/><ellipse fill="#FFF" cx="65.268" cy="155.91" rx="2.479" ry="2.801"/><ellipse fill="#FFF" cx="90.053" cy="58.816" rx="2.479" ry="2.801"/><ellipse fill="#FFF" cx="136.318" cy="2.801" rx="2.479" ry="2.801"/><ellipse fill="#FFF" cx="142.102" cy="23.34" rx="2.479" ry="2.801"/><ellipse fill="#FFF" cx="142.102" cy="48.547" rx="2.479" ry="2.801"/></g><g transform="rotate(40 -240.63 310.237)"><ellipse fill="#FFF" cx="113.186" cy="23.34" rx="2.479" ry="2.801"/><ellipse fill="#FFF" cx="57.006" cy="60.684" rx="3.305" ry="3.734"/><ellipse fill="#FFF" cx="36.352" cy="3.734" rx="3.305" ry="3.734"/><ellipse fill="#FFF" cx="3.305" cy="56.949" rx="3.305" ry="3.734"/><ellipse fill="#FFF" cx="13.219" cy="104.563" rx="4.957" ry="5.602"/><ellipse fill="#FFF" cx="28.09" cy="79.355" rx="2.479" ry="2.801"/><ellipse fill="#FFF" cx="79.313" cy="56.949" rx="2.479" ry="2.801"/><ellipse fill="#FFF" cx="108.229" cy="44.813" rx="2.479" ry="2.801"/><ellipse fill="#FFF" cx="42.135" cy="38.277" rx="2.479" ry="2.801"/><path stroke="#FFF" opacity=".3" d="M13.73 104.837l14.16-25.658-24.669-22.23M28.61 79.01L57.244 60.58 42.088 38.307l-5.476-34.64M57.186 60.701l22.07-3.545 29.082-12.174 5.07-21.602"/></g><g transform="rotate(50 73.943 283.752)"><path stroke="#FFF" opacity=".3" d="M2.576 73.112l19.422-12.13 14.514-43.244L38.74 2.24l7.665 13.236 54.388 29.3 13.41-2.61 6.935 20.074-21.171-16.582-7.083 15.326 30.288 12.129M22.377 61.473l70.98-.933M36.294 17.738l9.81-2.8"/><ellipse fill="#FFF" cx="36.352" cy="17.738" rx="3.305" ry="3.734"/><ellipse fill="#FFF" cx="120.621" cy="61.617" rx="3.305" ry="3.734"/><ellipse fill="#FFF" cx="99.967" cy="44.813" rx="4.957" ry="5.602"/><ellipse fill="#FFF" cx="22.307" cy="60.684" rx="2.479" ry="2.801"/><ellipse fill="#FFF" cx="2.479" cy="72.82" rx="2.479" ry="2.801"/><ellipse fill="#FFF" cx="93.357" cy="60.684" rx="2.479" ry="2.801"/><ellipse fill="#FFF" cx="114.012" cy="42.012" rx="2.479" ry="2.801"/><ellipse fill="#FFF" cx="46.266" cy="14.938" rx="2.479" ry="2.801"/><ellipse fill="#FFF" cx="38.83" cy="2.801" rx="2.479" ry="2.801"/><ellipse fill="#FFF" cx="123.1" cy="72.82" rx="2.479" ry="2.801"/></g><g transform="translate(110.707 117.105)"><ellipse fill="#FFF" cx="38.004" cy="5.602" rx="4.957" ry="5.602"/><ellipse fill="#FFF" cx="4.957" cy="70.953" rx="4.957" ry="5.602"/><ellipse fill="#FFF" cx="6.593" cy="24.644" rx="2.479" ry="2.801"/><ellipse fill="#FFF" cx="71.035" cy="29.312" rx="2.479" ry="2.801"/><ellipse fill="#FFF" cx="75.992" cy="71.323" rx="2.479" ry="2.801"/><ellipse fill="#FFF" cx="45.423" cy="94.663" rx="2.479" ry="2.801"/><path stroke="#FFF" opacity=".3" d="M6.61 25.207l-1.653 46.68 40.482 23.34 30.569-23.34-4.957-42.012L38.004 5.602z"/><path stroke="#FFF" opacity=".3" d="M38.004 7.469L4.957 70.019l71.05.934L38.005 5.602"/></g><ellipse fill="#FFF" cx="239.59" cy="104.035" rx="1" ry="1"/><ellipse fill="#FFF" cx="244.547" cy="98.434" rx="1" ry="1"/><ellipse fill="#FFF" cx="244.547" cy="168.453" rx="1" ry="1"/><ellipse fill="#FFF" cx="247.025" cy="171.254" rx="1" ry="1"/><ellipse fill="#FFF" cx="283.377" cy="155.383" rx="1" ry="1"/><ellipse fill="#FFF" cx="271.811" cy="212.332" rx="1" ry="1"/><ellipse fill="#FFF" cx="268.506" cy="217" rx="1" ry="1"/><ellipse fill="#FFF" cx="270.984" cy="198.328" rx="1" ry="1"/><ellipse fill="#FFF" cx="285.029" cy="207.664" rx="1" ry="1"/><ellipse fill="#FFF" cx="251.982" cy="201.129" rx="1" ry="1"/><ellipse fill="#FFF" cx="246.199" cy="206.73" rx="1" ry="1"/><ellipse fill="#FFF" cx="229.676" cy="199.262" rx="1" ry="1"/><ellipse fill="#FFF" cx="204.891" cy="301.957" rx="1" ry="1"/><ellipse fill="#FFF" cx="185.889" cy="311.293" rx="1" ry="1"/><ellipse fill="#FFF" cx="190.02" cy="308.492" rx="1" ry="1"/><ellipse fill="#FFF" cx="214.805" cy="327.164" rx="1" ry="1"/><ellipse fill="#FFF" cx="210.674" cy="289.82" rx="1" ry="1"/><ellipse fill="#FFF" cx="159.451" cy="280.484" rx="1" ry="1"/><ellipse fill="#FFF" cx="155.32" cy="288.887" rx="1" ry="1"/><ellipse fill="#FFF" cx="136.318" cy="296.355" rx="1" ry="1"/><ellipse fill="#FFF" cx="157.799" cy="305.691" rx="1" ry="1"/><ellipse fill="#FFF" cx="157.799" cy="240.34" rx="1" ry="1"/><ellipse fill="#FFF" cx="147.885" cy="244.074" rx="1" ry="1"/><ellipse fill="#FFF" cx="176.801" cy="242.207" rx="1" ry="1"/><ellipse fill="#FFF" cx="168.539" cy="206.73" rx="1" ry="1"/><ellipse fill="#FFF" cx="36.352" cy="290.754" rx="1" ry="1"/><ellipse fill="#FFF" cx="40.482" cy="278.617" rx="1" ry="1"/><ellipse fill="#FFF" cx="38.004" cy="295.422" rx="1" ry="1"/><ellipse fill="#FFF" cx="27.264" cy="285.152" rx="1" ry="1"/><ellipse fill="#FFF" cx="19.002" cy="278.617" rx="1" ry="1"/><ellipse fill="#FFF" cx="23.133" cy="277.684" rx="1" ry="1"/><ellipse fill="#FFF" cx="30.568" cy="253.41" rx="1" ry="1"/><ellipse fill="#FFF" cx="33.047" cy="200.195" rx="1" ry="1"/><ellipse fill="#FFF" cx="140.449" cy="340.234" rx="1" ry="1"/><ellipse fill="#FFF" cx="173.496" cy="344.902" rx="1" ry="1"/><ellipse fill="#FFF" cx="99.141" cy="326.23" rx="1" ry="1"/><ellipse fill="#FFF" cx="94.184" cy="324.363" rx="1" ry="1"/><ellipse fill="#FFF" cx="261.07" cy="117.105" rx="1" ry="1"/><ellipse fill="#FFF" cx="252.809" cy="61.09" rx="1" ry="1"/><ellipse fill="#FFF" cx="219.762" cy="79.762" rx="1" ry="1"/><ellipse fill="#FFF" cx="170.191" cy="107.77" rx="1" ry="1"/><ellipse fill="#FFF" cx="178.453" cy="111.504" rx="1" ry="1"/><ellipse fill="#FFF" cx="194.977" cy="92.832" rx="1" ry="1"/><ellipse fill="#FFF" cx="204.064" cy="96.566" rx="1" ry="1"/><ellipse fill="#FFF" cx="220.588" cy="59.223" rx="1" ry="1"/><ellipse fill="#FFF" cx="179.279" cy="49.887" rx="1" ry="1"/><ellipse fill="#FFF" cx="154.494" cy="77.895" rx="1" ry="1"/><ellipse fill="#FFF" cx="182.584" cy="46.152" rx="1" ry="1"/><ellipse fill="#FFF" cx="177.627" cy="40.551" rx="1" ry="1"/><ellipse fill="#FFF" cx="229.676" cy="55.488" rx="1" ry="1"/><ellipse fill="#FFF" cx="188.367" cy="64.824" rx="1" ry="1"/><ellipse fill="#FFF" cx="28.916" cy="118.039" rx="1" ry="1"/><ellipse fill="#FFF" cx="15.697" cy="123.641" rx="1" ry="1"/><ellipse fill="#FFF" cx="4.131" cy="87.23" rx="1" ry="1"/><ellipse fill="#FFF" cx="95.01" cy="77.895" rx="1" ry="1"/><ellipse fill="#FFF" cx="107.402" cy="158.184" rx="1" ry="1"/><ellipse fill="#FFF" cx="154.494" cy="169.387" rx="1" ry="1"/><ellipse fill="#FFF" cx="137.971" cy="137.645" rx="1" ry="1"/><ellipse fill="#FFF" cx="104.924" cy="221.668" rx="1" ry="1"/><ellipse fill="#FFF" cx="107.402" cy="226.336" rx="1" ry="1"/><ellipse fill="#FFF" cx="82.617" cy="235.672" rx="1" ry="1"/><ellipse fill="#FFF" cx="117.316" cy="258.078" rx="1" ry="1"/><ellipse fill="#FFF" cx="76.008" cy="192.727" rx="1" ry="1"/><ellipse fill="#FFF" cx="84.27" cy="171.254" rx="1" ry="1"/><ellipse fill="#FFF" cx="70.225" cy="178.723" rx="1" ry="1"/><ellipse fill="#FFF" cx="28.916" cy="206.73" rx="1" ry="1"/><ellipse fill="#FFF" cx="69.398" cy="129.242" rx="1" ry="1"/><ellipse fill="#FFF" cx="52.875" cy="107.77" rx="1" ry="1"/><ellipse fill="#FFF" cx="61.137" cy="79.762" rx="1" ry="1"/><ellipse fill="#FFF" cx="87.574" cy="38.684" rx="1" ry="1"/><ellipse fill="#FFF" cx="120.621" cy="113.371" rx="1" ry="1"/><ellipse fill="#FFF" cx="110.707" cy="126.441" rx="1" ry="1"/><ellipse fill="#FFF" cx="110.707" cy="126.441" rx="1" ry="1"/><ellipse fill="#FFF" cx="123.1" cy="141.379" rx="1" ry="1"/><ellipse fill="#FFF" cx="149.537" cy="91.898" rx="1" ry="1"/><ellipse fill="#FFF" cx="116.49" cy="85.363" rx="1" ry="1"/><ellipse fill="#FFF" cx="240.416" cy="178.723" rx="1" ry="1"/><ellipse fill="#FFF" cx="207.369" cy="206.73" rx="1" ry="1"/><ellipse fill="#FFF" cx="190.02" cy="199.262" rx="1" ry="1"/><ellipse fill="#FFF" cx="185.889" cy="197.395" rx="1" ry="1"/><ellipse fill="#FFF" cx="189.193" cy="212.332" rx="1" ry="1"/><ellipse fill="#FFF" cx="200.76" cy="161.918" rx="1" ry="1"/><ellipse fill="#FFF" cx="52.049" cy="171.254" rx="1" ry="1"/><ellipse fill="#FFF" cx="113.186" cy="1.34" rx="1" ry="1"/><ellipse fill="#FFF" cx="135.492" cy="45.219" rx="1" ry="1"/><ellipse fill="#FFF" cx="146.232" cy="29.348" rx="1" ry="1"/><ellipse fill="#FFF" cx="142.102" cy="32.148" rx="1" ry="1"/><ellipse fill="#FFF" cx="151.189" cy="15.344" rx="1" ry="1"/><ellipse fill="#FFF" cx="290.813" cy="189.926" rx="2.479" ry="2.801"/><ellipse fill="#FFF" cx="127.23" cy="292.621" rx="2.479" ry="2.801"/><ellipse fill="#FFF" cx="92.531" cy="245.941" rx="2.479" ry="2.801"/><ellipse fill="#FFF" cx="37.178" cy="305.691" rx="2.479" ry="2.801"/><ellipse fill="#FFF" cx="86.748" cy="333.699" rx="2.479" ry="2.801"/></g></g></g></g></g><ellipse fill="url(#H)" style="mix-blend-mode:overlay" mask="url(#x)" cx="182" cy="200" rx="165" ry="200"/></g></g></svg>