<svg width="20px" height="20px" viewBox="0 0 20 20" version="1.1" xmlns="http://www.w3.org/2000/svg" xmlns:xlink="http://www.w3.org/1999/xlink">
    <path d="M19.9990792,10 C14.4777311,10 10,14.4771172 10,20.0003069 C10,24.4184904 12.8650358,28.1663034 16.8387612,29.4886276 C17.3390835,29.5807115 17.5214095,29.2719236 17.5214095,29.0067221 C17.5214095,28.7697597 17.512815,28.14052 17.5079039,27.3062402 C14.7263575,27.9103103 14.1394763,25.9654992 14.1394763,25.9654992 C13.6845821,24.8101538 13.028945,24.5025937 13.028945,24.5025937 C12.1209982,23.8825624 13.097701,23.8948402 13.097701,23.8948402 C14.101415,23.9654379 14.6293625,24.9255655 14.6293625,24.9255655 C15.5213481,26.4535437 16.9701341,26.0121551 17.5398263,25.7561619 C17.6306823,25.1103472 17.889131,24.6695724 18.174591,24.4197182 C15.9541422,24.1674085 13.6195095,23.3091869 13.6195095,19.4772706 C13.6195095,18.38577 14.0093312,17.4925566 14.649007,16.793947 C14.5458731,16.5410234 14.2027073,15.5238037 14.7472298,14.147457 C14.7472298,14.147457 15.5864207,13.8785721 17.4968538,15.1726572 C18.2943,14.9504282 19.150066,14.8399276 20.0003069,14.8356303 C20.849934,14.8399276 21.7050861,14.9504282 22.5037601,15.1726572 C24.4129654,13.8785721 25.2509285,14.147457 25.2509285,14.147457 C25.7966788,15.5238037 25.453513,16.5410234 25.350993,16.793947 C25.9918966,17.4925566 26.3786488,18.38577 26.3786488,19.4772706 C26.3786488,23.3190092 24.0403327,24.164339 21.8131312,24.4117376 C22.1716443,24.7205255 22.4914822,25.3307345 22.4914822,26.2638509 C22.4914822,27.6002947 22.4792044,28.6789036 22.4792044,29.0067221 C22.4792044,29.2743792 22.6596888,29.5856226 23.1667639,29.4880138 C27.1374198,28.1626201 30,24.4172627 30,20.0003069 C30,14.4771172 25.5222689,10 19.9990792,10" transform="translate(-10, -10)" fill="#B8E986"></path>
</svg>