<svg xmlns="http://www.w3.org/2000/svg" viewBox="0 0 97 39"><path fill="#FFF" fill-rule="evenodd" d="M21.06 25c0-2.757-2.244-5-5-5-2.758 0-5 2.243-5 5 0 2.756 2.242 5 5 5 2.756 0 5-2.244 5-5zm11.999 0c0-2.757-2.243-5-5-5s-5 2.243-5 5c0 2.756 2.243 5 5 5s5-2.244 5-5zm7 29l-36-.59V16c0-3.374.86-6.108 2.475-8.112L3.89 5.244c-.78.485-1.74.755-2.83.755a1 1 0 0 1 0-2c1.906 0 3-1.093 3-3a1 1 0 0 1 2 0c0 1.092-.271 2.051-.756 2.831l2.644 2.644c2.003-1.615 4.737-2.475 8.111-2.475h12c3.374 0 6.108.86 8.112 2.475l2.643-2.644c-.485-.78-.755-1.739-.755-2.83a1 1 0 0 1 2 0c0 1.906 1.093 3 3 3a1 1 0 0 1 0 2c-1.092 0-2.05-.27-2.83-.756l-2.645 2.644c1.615 2.004 2.475 4.738 2.475 8.111v38zm-22-29a2 2 0 1 0-4 0 2 2 0 0 0 4 0zm1 0c0 1.654-1.345 3-3 3-1.654 0-3-1.346-3-3 0-1.655 1.346-3 3-3 1.655 0 3 1.345 3 3zm11 0a2 2 0 1 0-4 0 2 2 0 0 0 4 0zm1 0c0 1.654-1.345 3-3 3-1.654 0-3-1.346-3-3 0-1.655 1.346-3 3-3 1.655 0 3 1.345 3 3zm28-10h.036l2.982 3.103 2.99-2.948 2.996 3.026 2.998-2.987L74.06 18.2l3-2.996 3 3.001 2.999-3 3.036 3.001 2.964-3v-1.413l-3 3-3-3-3 3-3-3-3 3-3-3-3 3-3-3-3.037 3-2.963-3V15zm16 10c0 2.757 2.243 5 5 5s5-2.243 5-5-2.243-5-5-5-5 2.243-5 5zm-12 0c0 2.757 2.243 5 5 5s5-2.243 5-5-2.243-5-5-5-5 2.243-5 5zm-7 4.828v-5.657a3.005 3.005 0 0 0-2 2.829c0 1.303.836 2.416 2 2.828zm36-5.657v5.657a3.005 3.005 0 0 0 2-2.828 3.005 3.005 0 0 0-2-2.829zm0 29.829h-36V31.899a5.008 5.008 0 0 1-4-4.9 5.008 5.008 0 0 1 4-4.898V16c0-7.626 4.374-12 12-12h12c7.626 0 12 4.374 12 12v6.1c2.28.465 4 2.485 4 4.9a5.008 5.008 0 0 1-4 4.899v22.1zm-10-29a2 2 0 1 0-4 0 2 2 0 0 0 4 0zm1 0c0 1.654-1.346 3-3 3-1.655 0-3-1.346-3-3 0-1.655 1.345-3 3-3 1.654 0 3 1.345 3 3zm-13 0a2 2 0 1 0-4 0 2 2 0 0 0 4 0zm1 0c0 1.654-1.346 3-3 3-1.655 0-3-1.346-3-3 0-1.655 1.345-3 3-3 1.654 0 3 1.345 3 3z"/></svg>