<svg height="36" viewBox="0 0 146 36" width="146" xmlns="http://www.w3.org/2000/svg">
    <g fill="#fff" fill-rule="evenodd" transform="translate(-2 -2)">
        <path d="m16.3659091 24.8338636h-9.55181819l-2.47863636 6.2570455h-1.60204546l7.98000001-19.95h1.7834091l7.98 19.95h-1.6020455zm-.5440909-1.3904545-3.4761364-8.7054546-.7254545-2.115909h-.0302273l-.7254545 2.0554545-3.47613641 8.7659091zm12.1081818 7.9497727c-1.5315228 0-2.8615095-.3022697-3.99-.9068182-1.1284905-.6045484-1.9043161-1.4811306-2.3275-2.6297727l1.2393182-.8161364c.3022742 1.0075808.9168893 1.7632551 1.8438636 2.2670455.9269744.5037904 2.0655236.7556818 3.4156818.7556818 1.3703099 0 2.4433674-.2619671 3.2192046-.7859091s1.16375-1.2191623 1.16375-2.0856818c0-.7456098-.3324967-1.3400735-.9975-1.7834091-.6650033-.4433355-1.8337795-.8161348-3.5063637-1.1184091-2.1159196-.3828807-3.6071168-.8967392-4.4736363-1.5415909s-1.2997727-1.5617365-1.2997727-2.7506818c0-.785913.2418157-1.5113603.7254545-2.1763636.4836388-.6650034 1.1687834-1.1889375 2.0554545-1.5718182s1.8942368-.5743182 3.0227273-.5743182c1.5919777 0 2.8665483.3022697 3.82375.9068182.9572018.6045485 1.6171573 1.5315089 1.9798864 2.7809091l-1.2997727.7556818c-.5642453-2.0756164-2.0655182-3.1134091-4.5038637-3.1134091-.8060646 0-1.5365497.1309835-2.1914773.3929545-.6549275.2619711-1.168786.6095812-1.5415909 1.042841-.3728049.4332597-.5592045.9017777-.5592045 1.4055681 0 .8262163.3425723 1.4710583 1.0277273 1.9345455.6851549.4634872 1.8942337.8463621 3.6272727 1.1486364 2.0554648.3425774 3.5063594.8362846 4.3527273 1.4811363.8463678.6448517 1.2695454 1.5516608 1.2695454 2.7204546 0 1.2897034-.5491233 2.3224582-1.6473863 3.0982954-1.0982631.7758372-2.5743468 1.16375-4.4282955 1.16375zm18.0327273-1.2695454c-.4030323.4030323-.8967395.7153776-1.4811364.9370454s-1.2292389.3325-1.9345454.3325c-1.2292486 0-2.1914738-.3375345-2.8867046-1.0126136-.6952307-.6750792-1.0428409-1.6977583-1.0428409-3.0680682v-10.0354545h-3.0227273v-1.2997728h3.0227273v-3.7784091l1.5113636-.4231818v4.2015909h5.6827273v1.2997728h-5.6827273v9.8238636c0 .9471259.2267023 1.6675354.6801137 2.16125.4534113.4937146 1.1133669.7405682 1.9798863.7405682 1.0075808 0 1.884163-.3727993 2.6297728-1.1184091zm8.7529545-14.4486364c.8060647 0 1.440831.1712862 1.9043182.5138636l-.3929545 1.4206819c-.4634872-.3627291-1.1083292-.544091-1.9345455-.544091-.7657614 0-1.4861709.236778-2.16125.710341-.6750791.4735629-1.2191646 1.1385563-1.6322727 1.995-.4131082.8564436-.6196591 1.8085932-.6196591 2.8564772v8.4636364h-1.5113637v-15.1136364h1.2695455l.1813636 3.0831818c.423184-1.0680356 1.0529125-1.8992773 1.8892046-2.49375.836292-.5944726 1.8388199-.8917045 3.0076136-.8917045zm9.9318182 0c2.2368294 0 3.9950315.7002581 5.2746591 2.1007955 1.2796276 1.4005373 1.9194318 3.3199499 1.9194318 5.7582954s-.6398042 4.3577582-1.9194318 5.7582955-3.0378297 2.1007954-5.2746591 2.1007954-3.9950315-.7002581-5.2746591-2.1007954-1.9194318-3.31995-1.9194318-5.7582955.6398042-4.3577581 1.9194318-5.7582954c1.2796276-1.4005374 3.0378297-2.1007955 5.2746591-2.1007955zm0 1.2997727c-1.7733422 0-3.1637828.5843881-4.1713636 1.7531818-1.0075808 1.1687938-1.5113637 2.7708232-1.5113637 4.8061364s.5037829 3.6373426 1.5113637 4.8061364c1.0075808 1.1687937 2.3980214 1.7531818 4.1713636 1.7531818s3.1637828-.5843881 4.1713636-1.7531818c1.0075808-1.1687938 1.5113637-2.7708232 1.5113637-4.8061364s-.5037829-3.6373426-1.5113637-4.8061364c-1.0075808-1.1687937-2.3980214-1.7531818-4.1713636-1.7531818zm18.6977273 12.5745455c1.5113712 0 2.7002987.3123453 3.5668182.9370454.8665194.6247001 1.2997727 1.4609796 1.2997727 2.5088637 0 .9068227-.3073076 1.7078374-.9219318 2.4030682-.6146243.6952307-1.4660173 1.2342783-2.5542046 1.617159-1.0881872.3828807-2.327493.5743182-3.7179545.5743182-2.2771326 0-4.0202213-.3677614-5.2293182-1.1032954-1.209097-.735534-1.8136364-1.7078349-1.8136364-2.9169318 0-.7859131.2418158-1.4609821.7254546-2.0252273.4836388-.5642453 1.1486321-.9672715 1.995-1.2090909-.6045485-.261971-1.0831422-.6246947-1.4357955-1.0881818-.3526533-.4634872-.5289773-.9773457-.5289773-1.541591 0-.7254581.236778-1.3400732.710341-1.8438636.4735629-.5037904 1.1133671-.866514 1.9194318-1.0881818-.8262163-.4231839-1.4609827-.9924586-1.9043182-1.7078409-.4433356-.7153824-.665-1.5365484-.665-2.4635227 0-1.4912196.5591989-2.685185 1.6776136-3.5819319s2.6045741-1.3451136 4.4585228-1.3451136c1.2897034 0 2.4282526.2317401 3.4156818.6952273.1209097-.9672776.5239359-1.7380653 1.2090909-2.3123864.6851549-.574321 1.5415858-.8614773 2.5693182-.8614773l.3627272 1.33c-.9471259 0-1.6927245.2115888-2.2368181.6347728-.5440937.4231839-.856439 1.0277233-.9370455 1.8136363 1.1486421.9269744 1.7229545 2.1360532 1.7229545 3.6272728 0 1.4912195-.5591989 2.6902227-1.6776136 3.5970454s-2.5944984 1.3602273-4.4282954 1.3602273c-.6247001 0-1.3098448-.0705296-2.0554546-.2115909-.8463679.1007581-1.5063234.3476116-1.9798864.7405682-.4735629.3929565-.7103409.8614745-.7103409 1.4055681 0 .6448517.2720428 1.1486346.8161364 1.5113637s1.3602218.5440909 2.4484091.5440909zm-7.0429546-8.9472727c0 1.1284904.413102 2.0252239 1.2393182 2.6902272.8262163.6650034 1.9546898.9975 3.3854546.9975 1.4106131 0 2.529011-.3324966 3.3552272-.9975.8262163-.6650033 1.2393182-1.5617368 1.2393182-2.6902272 0-1.1284905-.4131019-2.0201862-1.2393182-2.6751137-.8262162-.6549275-1.9446141-.9823863-3.3552272-.9823863-1.4106132 0-2.5340489.3274588-3.370341.9823863-.836292.6549275-1.2544318 1.5466232-1.2544318 2.6751137zm4.8665909 15.7181818c1.7128874 0 3.0882145-.2972319 4.1260228-.8917046 1.0378082-.5944726 1.5567045-1.3451091 1.5567045-2.2519318 0-.7254582-.3274588-1.2947328-.9823864-1.7078409-.6549275-.4131081-1.607077-.6196591-2.8564772-.6196591h-3.8993182c-1.1486421 0-2.0604891.2267023-2.7355682.6801136-.6750791.4534114-1.0126136 1.052913-1.0126136 1.7985228 0 .9269743.5037828 1.6574594 1.5113636 2.1914772 1.0075808.5340179 2.4383241.8010228 4.2922727.8010228zm15.7052273-20.6452273c.8060646 0 1.440831.1712862 1.9043182.5138636l-.3929546 1.4206819c-.4634871-.3627291-1.1083292-.544091-1.9345454-.544091-.7657614 0-1.4861709.236778-2.16125.710341-.6750791.4735629-1.2191646 1.1385563-1.6322727 1.995-.4131082.8564436-.6196591 1.8085932-.6196591 2.8564772v8.4636364h-1.5113637v-15.1136364h1.2695455l.1813636 3.0831818c.423184-1.0680356 1.0529125-1.8992773 1.8892046-2.49375.836292-.5944726 1.8388199-.8917045 3.0076136-.8917045zm16.1888641 14.4184091c.50379 0 .896741-.0705296 1.178863-.2115909l-.090682 1.2090909c-.362729.2015161-.856436.3022727-1.481136.3022727-.705307 0-1.279619-.1914375-1.722955-.5743182-.443335-.3828807-.695227-1.047874-.755681-1.995-.463488.8060647-1.209086 1.4357932-2.236819 1.8892046-1.027732.4534113-2.105827.6801136-3.234318.6801136-1.491219 0-2.685185-.3324967-3.581932-.9975-.896746-.6650033-1.3451132-1.612115-1.3451132-2.8413636 0-2.3375875 1.9143752-3.848936 5.7431822-4.5340909l4.624772-.8161364v-1.33c0-1.2090969-.357685-2.1562087-1.073068-2.8413636-.715382-.685155-1.727986-1.0277273-3.037841-1.0277273-2.398042 0-4.010147 1.0680196-4.836363 3.2040909l-1.148637-.8463636c.443336-1.1889454 1.178859-2.1007923 2.206591-2.7355682 1.027733-.6347759 2.28719-.9521591 3.778409-.9521591 1.753191 0 3.128518.4282154 4.126023 1.2846591s1.49625 2.1007873 1.49625 3.7330682v7.7986363c0 1.0680357.46348 1.6020455 1.390455 1.6020455zm-8.191591-.0302273c.846368 0 1.672571-.146097 2.478636-.4382954.806065-.2921985 1.476096-.7254517 2.010114-1.2997728.534017-.574321.801022-1.2645035.801022-2.0705681v-2.8111364l-4.141136.7556818c-1.632281.3022742-2.821208.7254518-3.566818 1.2695455-.74561.5440936-1.118409 1.2393139-1.118409 2.0856818 0 .8060646.312345 1.4257175.937045 1.8589773.6247.4332597 1.491207.6498863 2.599546.6498863zm18.879091-14.3881818c2.136071 0 3.823743.6952203 5.063068 2.0856818 1.239324 1.3904615 1.858977 3.314912 1.858977 5.7734091s-.619653 4.3829476-1.858977 5.7734091c-1.239325 1.3904615-2.926997 2.0856818-5.063068 2.0856818-1.289704 0-2.423215-.3123453-3.400569-.9370454-.977353-.6247001-1.697762-1.481131-2.16125-2.5693182v9.5518182h-1.511363v-21.4613637h1.360227l.090682 3.4156818c.423184-1.1687937 1.123442-2.0806406 2.100795-2.7355681.977354-.6549276 2.151168-.9823864 3.521478-.9823864zm-.181364 14.3881818c1.75319 0 3.12348-.5793502 4.110909-1.7380682.987429-1.1587179 1.481136-2.7557095 1.481136-4.7910227s-.493707-3.6323048-1.481136-4.7910227-2.357719-1.7380682-4.110909-1.7380682c-1.571826 0-2.841359.5340098-3.808636 1.6020455-.967278 1.0680356-1.491212 2.5290058-1.571819 4.3829545v1.0881818c.080607 1.8539487.604541 3.3149189 1.571819 4.3829546.967277 1.0680356 2.23681 1.6020454 3.808636 1.6020454zm17.942045-14.3881818c1.733039 0 3.128518.4836315 4.186478 1.4509091 1.057959.9672776 1.586931 2.3476425 1.586931 4.1411364v9.8238636h-1.511363v-9.3402273c0-1.5919776-.397989-2.785943-1.193977-3.5819318-.795989-.7959888-1.869047-1.1939773-3.219205-1.1939773-.967278 0-1.864011.2267023-2.690227.6801137-.826217.4534113-1.486172 1.1032912-1.979887 1.9496591-.493714.8463678-.740568 1.8337822-.740568 2.9622727v8.5240909h-1.511363v-22.0659091h1.511363v9.9447727c.483639-1.0680356 1.214124-1.8841638 2.191477-2.4484091.977354-.5642452 2.10079-.8463636 3.370341-.8463636z"/><path d="m15.9772727 12.0909091h-5.1818182v.2159091h-1.2954545v-.2159091h-4.31818182l-3.02272727-.4318182v-.8636364h-1.29545455v-1.72727268h1.29545455v-.86363637l3.02272727-.43181818h.86363637v-1.29545454h-1.72727273v-.43181818h-.86363637v-.86363637h.86363637v-.43181818h1.72727273v-.21590909h1.29545454v.21590909h2.59090909v1.72727273h-2.59090909v1.29545454h2.15909091v-.21590909h1.2954545v.21590909h5.1818182v-.43181818h3.4545455v5.18181821h-3.4545455z" transform="matrix(.8660254 -.5 .5 .8660254 -2.904667 6.216454)"/>
    </g>
</svg>